# xmcd
#
# Track frame offsets:
#	150
#	22275
#	43850
#	65450
#	90342
#	105405
#	123095
#	141165
#	162697
#
# Disc length: 2522 seconds
#
# Revision: 1
# Processed by: cddbd v1.5.1PL2 Copyright (c) Steve Scherf et al.
# Submitted via: audiograbber 1.83.01
#
DISCID=7809d809
DTITLE=Barrio Chino - Barrio Chino
DYEAR=1995
DGENRE=Latin
TTITLE0=Oran
TTITLE1=Sabor del barrio
TTITLE2=Anda mi jaleo
TTITLE3=El oriente
TTITLE4=Massilia
TTITLE5=Sandade
TTITLE6=Sangre gitana
TTITLE7=Dame la luz
TTITLE8=Sara Cali
EXTD=
EXTT0=
EXTT1=
EXTT2=
EXTT3=
EXTT4=
EXTT5=
EXTT6=
EXTT7=
EXTT8=
PLAYORDER=
